# WaveFront *.obj file
# Vertices: 74
# Triangles : 144

v 8.0000000000000000e+01 4.7000000000000000e+01 5.0000000000000000e+01
v 8.0000000000000000e+01 4.6500000000000000e+01 5.0000000000000000e+01
v 8.0000000000000000e+01 4.6500000000000000e+01 0.0000000000000000e+00
v 8.0000000000000000e+01 4.7000000000000000e+01 0.0000000000000000e+00
v 7.5000000000000000e+01 4.7000000000000000e+01 5.0000000000000000e+01
v 7.5000000000000000e+01 4.7000000000000000e+01 0.0000000000000000e+00
v 7.5000000000000000e+01 5.0000000000000000e+01 0.0000000000000000e+00
v 2.9999999999999996e+01 5.0000000000000000e+01 0.0000000000000000e+00
v 2.9999999999999996e+01 5.0000000000000000e+01 5.0000000000000000e+01
v 7.5000000000000000e+01 5.0000000000000000e+01 5.0000000000000000e+01
v 2.9999999999999996e+01 4.6500000000000000e+01 0.0000000000000000e+00
v 2.9999999999999996e+01 4.6500000000000000e+01 5.0000000000000000e+01
v 3.5000000000000000e+00 2.0000000000000014e+01 0.0000000000000000e+00
v 4.0091900693143891e+00 2.5169893533427416e+01 0.0000000000000000e+00
v 5.5171923884508978e+00 3.0141110957674890e+01 0.0000000000000000e+00
v 7.9660552739825476e+00 3.4722611175019473e+01 0.0000000000000000e+00
v 1.1261670298556485e+01 3.8738329701443519e+01 0.0000000000000000e+00
v 1.5277388824980539e+01 4.2033944726017467e+01 0.0000000000000000e+00
v 1.9858889042325117e+01 4.4482807611549106e+01 0.0000000000000000e+00
v 2.4830106466572598e+01 4.5990809930685614e+01 0.0000000000000000e+00
v 2.4830106466572598e+01 4.5990809930685614e+01 5.0000000000000000e+01
v 1.9858889042325114e+01 4.4482807611549106e+01 5.0000000000000000e+01
v 1.5277388824980539e+01 4.2033944726017467e+01 5.0000000000000000e+01
v 1.1261670298556485e+01 3.8738329701443519e+01 5.0000000000000000e+01
v 7.9660552739825476e+00 3.4722611175019473e+01 5.0000000000000000e+01
v 5.5171923884508978e+00 3.0141110957674890e+01 5.0000000000000000e+01
v 4.0091900693143891e+00 2.5169893533427416e+01 5.0000000000000000e+01
v 3.5000000000000000e+00 2.0000000000000014e+01 5.0000000000000000e+01
v 1.9999999999999993e+01 3.5000000000000000e+00 0.0000000000000000e+00
v 1.5729485755808399e+01 4.0622238662303722e+00 0.0000000000000000e+00
v 1.1749999999999989e+01 5.7105808375567619e+00 0.0000000000000000e+00
v 8.3327381104219533e+00 8.3327381104219711e+00 0.0000000000000000e+00
v 5.7105808375567531e+00 1.1750000000000007e+01 0.0000000000000000e+00
v 4.0622238662303669e+00 1.5729485755808419e+01 0.0000000000000000e+00
v 4.0622238662303669e+00 1.5729485755808419e+01 5.0000000000000000e+01
v 5.7105808375567531e+00 1.1750000000000007e+01 5.0000000000000000e+01
v 8.3327381104219533e+00 8.3327381104219711e+00 5.0000000000000000e+01
v 1.1749999999999989e+01 5.7105808375567619e+00 5.0000000000000000e+01
v 1.5729485755808399e+01 4.0622238662303722e+00 5.0000000000000000e+01
v 1.9999999999999993e+01 3.5000000000000000e+00 5.0000000000000000e+01
v 1.5000000000000000e+02 3.5000000000000000e+00 0.0000000000000000e+00
v 1.5000000000000000e+02 3.5000000000000000e+00 5.0000000000000000e+01
v 1.5000000000000000e+02 0.0000000000000000e+00 0.0000000000000000e+00
v 1.5000000000000000e+02 0.0000000000000000e+00 5.0000000000000000e+01
v 1.9999999999999993e+01 0.0000000000000000e+00 0.0000000000000000e+00
v 1.9999999999999993e+01 0.0000000000000000e+00 5.0000000000000000e+01
v 0.0000000000000000e+00 2.0000000000000007e+01 0.0000000000000000e+00
v 5.0144175636352506e-01 1.5549581320873717e+01 0.0000000000000000e+00
v 1.9806226419516100e+00 1.1322325217648839e+01 0.0000000000000000e+00
v 4.3633703506393937e+00 7.5302039628253308e+00 0.0000000000000000e+00
v 7.5302039628253210e+00 4.3633703506394035e+00 0.0000000000000000e+00
v 1.1322325217648828e+01 1.9806226419516157e+00 0.0000000000000000e+00
v 1.5549581320873704e+01 5.0144175636352628e-01 0.0000000000000000e+00
v 1.5549581320873704e+01 5.0144175636352628e-01 5.0000000000000000e+01
v 1.1322325217648828e+01 1.9806226419516157e+00 5.0000000000000000e+01
v 7.5302039628253210e+00 4.3633703506394035e+00 5.0000000000000000e+01
v 4.3633703506393937e+00 7.5302039628253308e+00 5.0000000000000000e+01
v 1.9806226419516100e+00 1.1322325217648839e+01 5.0000000000000000e+01
v 5.0144175636352506e-01 1.5549581320873717e+01 5.0000000000000000e+01
v 0.0000000000000000e+00 2.0000000000000007e+01 5.0000000000000000e+01
v 2.4147290339516147e+01 4.9423558412096916e+01 0.0000000000000000e+00
v 1.8519497029047301e+01 4.7716385975338603e+01 0.0000000000000000e+00
v 1.3332893009411929e+01 4.4944088369076368e+01 0.0000000000000000e+00
v 8.7867965644035664e+00 4.1213203435596434e+01 0.0000000000000000e+00
v 5.0559116309236352e+00 3.6667106990588074e+01 0.0000000000000000e+00
v 2.2836140246613930e+00 3.1480502970952703e+01 0.0000000000000000e+00
v 5.7644158790308353e-01 2.5852709660483857e+01 0.0000000000000000e+00
v 5.7644158790308353e-01 2.5852709660483857e+01 5.0000000000000000e+01
v 2.2836140246613930e+00 3.1480502970952703e+01 5.0000000000000000e+01
v 5.0559116309236352e+00 3.6667106990588074e+01 5.0000000000000000e+01
v 8.7867965644035664e+00 4.1213203435596434e+01 5.0000000000000000e+01
v 1.3332893009411929e+01 4.4944088369076368e+01 5.0000000000000000e+01
v 1.8519497029047301e+01 4.7716385975338603e+01 5.0000000000000000e+01
v 2.4147290339516147e+01 4.9423558412096916e+01 5.0000000000000000e+01

vn 1.0000000000000000e+00 -0.0000000000000000e+00 0.0000000000000000e+00
vn 0.0000000000000000e+00 1.0000000000000000e+00 0.0000000000000000e+00
vn 0.0000000000000000e+00 -1.0000000000000000e+00 0.0000000000000000e+00
vn 1.0000000000000000e+00 5.5462722464602007e-16 -0.0000000000000000e+00
vn 9.8078528040323043e-01 -1.9509032201612811e-01 0.0000000000000000e+00
vn 9.2387953251128685e-01 -3.8268343236508945e-01 0.0000000000000000e+00
vn 8.3146961230254512e-01 -5.5557023301960229e-01 0.0000000000000000e+00
vn 7.0710678118654735e-01 -7.0710678118654757e-01 0.0000000000000000e+00
vn 5.5557023301960162e-01 -8.3146961230254568e-01 0.0000000000000000e+00
vn 3.8268343236508923e-01 -9.2387953251128685e-01 0.0000000000000000e+00
vn 3.8268343236508939e-01 -9.2387953251128685e-01 0.0000000000000000e+00
vn 1.9509032201612750e-01 -9.8078528040323065e-01 0.0000000000000000e+00
vn -9.3845266987183141e-16 -1.0000000000000000e+00 0.0000000000000000e+00
vn -4.3668586502603439e-16 1.0000000000000000e+00 0.0000000000000000e+00
vn 2.5881904510252068e-01 9.6592582628906820e-01 -0.0000000000000000e+00
vn 5.0000000000000022e-01 8.6602540378443849e-01 -0.0000000000000000e+00
vn 7.0710678118654791e-01 7.0710678118654702e-01 -0.0000000000000000e+00
vn 8.6602540378443904e-01 4.9999999999999917e-01 -0.0000000000000000e+00
vn 9.6592582628906865e-01 2.5881904510251946e-01 -0.0000000000000000e+00
vn 1.0000000000000000e+00 -1.7225278442669110e-15 0.0000000000000000e+00
vn -1.0000000000000000e+00 1.0658141036401510e-15 -0.0000000000000000e+00
vn -9.7492791218182384e-01 -2.2252093395631364e-01 0.0000000000000000e+00
vn -9.0096886790241937e-01 -4.3388373911755762e-01 0.0000000000000000e+00
vn -7.8183148246803014e-01 -6.2348980185873315e-01 0.0000000000000000e+00
vn -6.2348980185873359e-01 -7.8183148246802969e-01 0.0000000000000000e+00
vn -4.3388373911755818e-01 -9.0096886790241915e-01 0.0000000000000000e+00
vn -2.2252093395631420e-01 -9.7492791218182373e-01 0.0000000000000000e+00
vn 4.2726579087770065e-16 -1.0000000000000000e+00 -0.0000000000000000e+00
vn 8.2896652505345102e-16 1.0000000000000000e+00 -0.0000000000000000e+00
vn -1.9509032201612767e-01 9.8078528040323054e-01 -0.0000000000000000e+00
vn -3.8268343236508945e-01 9.2387953251128696e-01 -0.0000000000000000e+00
vn -5.5557023301960184e-01 8.3146961230254546e-01 -0.0000000000000000e+00
vn -7.0710678118654746e-01 7.0710678118654746e-01 -0.0000000000000000e+00
vn -8.3146961230254535e-01 5.5557023301960207e-01 -0.0000000000000000e+00
vn -9.2387953251128674e-01 3.8268343236508956e-01 -0.0000000000000000e+00
vn -9.8078528040323054e-01 1.9509032201612783e-01 -0.0000000000000000e+00
vn -1.0000000000000000e+00 -6.6411336946440056e-16 0.0000000000000000e+00
vn 0.0000000000000000e+00 0.0000000000000000e+00 1.0000000000000000e+00
vn -0.0000000000000000e+00 0.0000000000000000e+00 -1.0000000000000000e+00

g face 0
f 1//1 2//1 4//1
f 4//1 2//1 3//1

g face 1
f 5//2 1//2 6//2
f 6//2 1//2 4//2

g face 2
f 7//2 8//2 10//2
f 10//2 8//2 9//2

g face 3
f 6//1 7//1 5//1
f 5//1 7//1 10//1

g face 4
f 11//3 3//3 12//3
f 12//3 3//3 2//3

g face 5
f 28//4 13//4 27//5
f 27//5 13//4 14//5
f 27//5 14//5 15//6
f 27//5 15//6 26//6
f 26//6 15//6 16//7
f 26//6 16//7 25//7
f 25//7 16//7 17//8
f 25//7 17//8 24//8
f 24//8 17//8 18//9
f 24//8 18//9 23//9
f 23//9 18//9 19//10
f 23//9 19//10 22//11
f 22//11 19//10 20//12
f 22//11 20//12 21//12
f 21//12 20//12 12//13
f 12//13 20//12 11//13

g face 6
f 40//14 29//14 39//15
f 39//15 29//14 30//15
f 39//15 30//15 38//16
f 38//16 30//15 31//16
f 38//16 31//16 37//17
f 37//17 31//16 32//17
f 37//17 32//17 36//18
f 36//18 32//17 33//18
f 36//18 33//18 35//19
f 35//19 33//18 34//19
f 35//19 34//19 28//20
f 28//20 34//19 13//20

g face 7
f 41//2 29//2 42//2
f 42//2 29//2 40//2

g face 8
f 43//1 41//1 44//1
f 44//1 41//1 42//1

g face 9
f 45//3 43//3 46//3
f 46//3 43//3 44//3

g face 10
f 60//21 47//21 59//22
f 59//22 47//21 48//22
f 59//22 48//22 49//23
f 59//22 49//23 58//23
f 58//23 49//23 50//24
f 58//23 50//24 57//24
f 57//24 50//24 51//25
f 57//24 51//25 56//25
f 56//25 51//25 52//26
f 56//25 52//26 55//26
f 55//26 52//26 53//27
f 55//26 53//27 54//27
f 54//27 53//27 46//28
f 46//28 53//27 45//28

g face 11
f 9//29 8//29 74//30
f 74//30 8//29 61//30
f 74//30 61//30 73//31
f 73//31 61//30 62//31
f 73//31 62//31 72//32
f 72//32 62//31 63//32
f 72//32 63//32 71//33
f 71//33 63//32 64//33
f 71//33 64//33 70//34
f 70//34 64//33 65//34
f 70//34 65//34 69//35
f 69//35 65//34 66//35
f 69//35 66//35 68//36
f 68//36 66//35 67//36
f 68//36 67//36 60//37
f 60//37 67//36 47//37

g face 12
f 74//38 12//38 9//38
f 9//38 12//38 5//38
f 9//38 5//38 10//38
f 12//38 74//38 21//38
f 21//38 74//38 73//38
f 21//38 73//38 22//38
f 22//38 73//38 72//38
f 22//38 72//38 23//38
f 23//38 72//38 71//38
f 23//38 71//38 24//38
f 24//38 71//38 70//38
f 24//38 70//38 25//38
f 25//38 70//38 69//38
f 25//38 69//38 26//38
f 26//38 69//38 68//38
f 26//38 68//38 27//38
f 27//38 68//38 60//38
f 27//38 60//38 28//38
f 28//38 60//38 35//38
f 35//38 60//38 59//38
f 35//38 59//38 36//38
f 36//38 59//38 58//38
f 36//38 58//38 37//38
f 37//38 58//38 57//38
f 37//38 57//38 38//38
f 38//38 57//38 56//38
f 38//38 56//38 39//38
f 39//38 56//38 55//38
f 39//38 55//38 54//38
f 39//38 54//38 40//38
f 40//38 54//38 46//38
f 40//38 46//38 44//38
f 44//38 42//38 40//38
f 12//38 2//38 5//38
f 5//38 2//38 1//38

g face 13
f 67//39 14//39 47//39
f 47//39 14//39 13//39
f 47//39 13//39 34//39
f 14//39 67//39 15//39
f 15//39 67//39 66//39
f 15//39 66//39 16//39
f 16//39 66//39 65//39
f 16//39 65//39 17//39
f 17//39 65//39 64//39
f 17//39 64//39 18//39
f 18//39 64//39 63//39
f 18//39 63//39 19//39
f 19//39 63//39 62//39
f 19//39 62//39 20//39
f 20//39 62//39 61//39
f 20//39 61//39 11//39
f 11//39 61//39 8//39
f 11//39 8//39 6//39
f 6//39 8//39 7//39
f 4//39 3//39 6//39
f 6//39 3//39 11//39
f 47//39 34//39 48//39
f 48//39 34//39 33//39
f 48//39 33//39 49//39
f 49//39 33//39 32//39
f 49//39 32//39 50//39
f 50//39 32//39 31//39
f 50//39 31//39 51//39
f 51//39 31//39 30//39
f 51//39 30//39 52//39
f 52//39 30//39 53//39
f 53//39 30//39 29//39
f 53//39 29//39 45//39
f 45//39 29//39 43//39
f 43//39 29//39 41//39

g halfedge 0 edge 0
l 2 1

g halfedge 1 edge 0
l 1 2

g halfedge 2 edge 1
l 2 3

g halfedge 3 edge 1
l 3 2

g halfedge 4 edge 2
l 3 4

g halfedge 5 edge 2
l 4 3

g halfedge 6 edge 3
l 1 4

g halfedge 7 edge 3
l 4 1

g halfedge 8 edge 4
l 1 5

g halfedge 9 edge 4
l 5 1

g halfedge 10 edge 5
l 4 6

g halfedge 11 edge 5
l 6 4

g halfedge 12 edge 6
l 5 6

g halfedge 13 edge 6
l 6 5

g halfedge 14 edge 7
l 7 8

g halfedge 15 edge 7
l 8 7

g halfedge 16 edge 8
l 9 8

g halfedge 17 edge 8
l 8 9

g halfedge 18 edge 9
l 9 10

g halfedge 19 edge 9
l 10 9

g halfedge 20 edge 10
l 7 10

g halfedge 21 edge 10
l 10 7

g halfedge 22 edge 11
l 6 7

g halfedge 23 edge 11
l 7 6

g halfedge 24 edge 12
l 10 5

g halfedge 25 edge 12
l 5 10

g halfedge 26 edge 13
l 11 3

g halfedge 27 edge 13
l 3 11

g halfedge 28 edge 14
l 2 12

g halfedge 29 edge 14
l 12 2

g halfedge 30 edge 15
l 11 12

g halfedge 31 edge 15
l 12 11

g halfedge 32 edge 16
l 13 14 15 16 17 18 19 20 11

g halfedge 33 edge 16
l 11 20 19 18 17 16 15 14 13

g halfedge 34 edge 17
l 12 21 22 23 24 25 26 27 28

g halfedge 35 edge 17
l 28 27 26 25 24 23 22 21 12

g halfedge 36 edge 18
l 13 28

g halfedge 37 edge 18
l 28 13

g halfedge 38 edge 19
l 29 30 31 32 33 34 13

g halfedge 39 edge 19
l 13 34 33 32 31 30 29

g halfedge 40 edge 20
l 28 35 36 37 38 39 40

g halfedge 41 edge 20
l 40 39 38 37 36 35 28

g halfedge 42 edge 21
l 29 40

g halfedge 43 edge 21
l 40 29

g halfedge 44 edge 22
l 41 29

g halfedge 45 edge 22
l 29 41

g halfedge 46 edge 23
l 40 42

g halfedge 47 edge 23
l 42 40

g halfedge 48 edge 24
l 41 42

g halfedge 49 edge 24
l 42 41

g halfedge 50 edge 25
l 43 41

g halfedge 51 edge 25
l 41 43

g halfedge 52 edge 26
l 42 44

g halfedge 53 edge 26
l 44 42

g halfedge 54 edge 27
l 43 44

g halfedge 55 edge 27
l 44 43

g halfedge 56 edge 28
l 45 43

g halfedge 57 edge 28
l 43 45

g halfedge 58 edge 29
l 44 46

g halfedge 59 edge 29
l 46 44

g halfedge 60 edge 30
l 45 46

g halfedge 61 edge 30
l 46 45

g halfedge 62 edge 31
l 47 48 49 50 51 52 53 45

g halfedge 63 edge 31
l 45 53 52 51 50 49 48 47

g halfedge 64 edge 32
l 46 54 55 56 57 58 59 60

g halfedge 65 edge 32
l 60 59 58 57 56 55 54 46

g halfedge 66 edge 33
l 47 60

g halfedge 67 edge 33
l 60 47

g halfedge 68 edge 34
l 8 61 62 63 64 65 66 67 47

g halfedge 69 edge 34
l 47 67 66 65 64 63 62 61 8

g halfedge 70 edge 35
l 60 68 69 70 71 72 73 74 9

g halfedge 71 edge 35
l 9 74 73 72 71 70 69 68 60

g vertex 0
p 1

g vertex 1
p 2

g vertex 2
p 3

g vertex 3
p 4

g vertex 4
p 5

g vertex 5
p 6

g vertex 6
p 7

g vertex 7
p 8

g vertex 8
p 9

g vertex 9
p 10

g vertex 10
p 11

g vertex 11
p 12

g vertex 12
p 13

g vertex 13
p 28

g vertex 14
p 29

g vertex 15
p 40

g vertex 16
p 41

g vertex 17
p 42

g vertex 18
p 43

g vertex 19
p 44

g vertex 20
p 45

g vertex 21
p 46

g vertex 22
p 47

g vertex 23
p 60

# End of file
