ISO-10303-21;
HEADER;
/* Generated by software containing ST-Developer
 * from STEP Tools, Inc. (www.steptools.com) 
 */

FILE_DESCRIPTION(
/* description */ (''),
/* implementation_level */ '2;1');

FILE_NAME(
/* name */ 
'C:\\Users\\designnet\\AppData\\Local\\Temp\\derivatives\\23728_89d913
ac\\AssemblyExtractor\\23728_89d913ac\\assembly.step',
/* time_stamp */ '2021-08-25T17:15:51+00:00',
/* author */ (''),
/* organization */ (''),
/* preprocessor_version */ 'ST-DEVELOPER v18.1',
/* originating_system */ 'Autodesk Translation Framework v10.6.0.1341',

/* authorisation */ '');

FILE_SCHEMA (('AUTOMOTIVE_DESIGN { 1 0 10303 214 3 1 1 }'));
ENDSEC;

DATA;
#10=MECHANICAL_DESIGN_GEOMETRIC_PRESENTATION_REPRESENTATION('',(#382,#383,
#384,#385,#386,#387,#388),#753);
#11=SHAPE_REPRESENTATION_RELATIONSHIP('SRR','None',#760,#12);
#12=ADVANCED_BREP_SHAPE_REPRESENTATION('',(#21,#20,#22),#752);
#13=SPHERICAL_SURFACE('',#470,1.31833);
#14=SPHERICAL_SURFACE('',#476,1.31833);
#15=SPHERICAL_SURFACE('',#480,1.31833);
#16=SPHERICAL_SURFACE('',#481,1.31833);
#17=B_SPLINE_CURVE_WITH_KNOTS('',3,(#688,#689,#690,#691,#692,#693),
 .UNSPECIFIED.,.F.,.F.,(4,2,4),(0.873028760144167,1.12660958875745,1.32204058833879),
 .UNSPECIFIED.);
#18=B_SPLINE_CURVE_WITH_KNOTS('',3,(#698,#699,#700,#701,#702,#703),
 .UNSPECIFIED.,.F.,.F.,(4,2,4),(3.19994528976161,3.39539903145217,3.64897986006546),
 .UNSPECIFIED.);
#19=ORIENTED_CLOSED_SHELL('',*,#419,.F.);
#20=BREP_WITH_VOIDS('Body3',#420,(#19));
#21=MANIFOLD_SOLID_BREP('Body2',#418);
#22=MANIFOLD_SOLID_BREP('Body4',#421);
#23=FACE_BOUND('',#80,.T.);
#24=FACE_BOUND('',#81,.T.);
#25=FACE_BOUND('',#83,.T.);
#26=FACE_BOUND('',#84,.T.);
#27=FACE_BOUND('',#86,.T.);
#28=FACE_BOUND('',#88,.T.);
#29=FACE_BOUND('',#104,.T.);
#30=CYLINDRICAL_SURFACE('',#449,7.90998);
#31=CYLINDRICAL_SURFACE('',#452,8.69306156300228);
#32=CYLINDRICAL_SURFACE('',#457,0.707106781186548);
#33=CYLINDRICAL_SURFACE('',#462,0.73106481699061);
#34=CYLINDRICAL_SURFACE('',#464,0.73106481699061);
#35=CYLINDRICAL_SURFACE('',#467,1.31833);
#36=CYLINDRICAL_SURFACE('',#473,1.31833);
#37=CYLINDRICAL_SURFACE('',#478,1.31833);
#38=CYLINDRICAL_SURFACE('',#483,1.31833);
#39=CYLINDRICAL_SURFACE('',#485,0.761579243831093);
#40=ELLIPSE('',#440,11.1165818731376,7.90998);
#41=ELLIPSE('',#441,12.2171144039986,8.69306156300228);
#42=ELLIPSE('',#444,11.121771397733,7.90998);
#43=ELLIPSE('',#445,12.2228176872926,8.69306156300228);
#44=FACE_OUTER_BOUND('',#73,.T.);
#45=FACE_OUTER_BOUND('',#74,.T.);
#46=FACE_OUTER_BOUND('',#75,.T.);
#47=FACE_OUTER_BOUND('',#76,.T.);
#48=FACE_OUTER_BOUND('',#77,.T.);
#49=FACE_OUTER_BOUND('',#78,.T.);
#50=FACE_OUTER_BOUND('',#79,.T.);
#51=FACE_OUTER_BOUND('',#82,.T.);
#52=FACE_OUTER_BOUND('',#85,.T.);
#53=FACE_OUTER_BOUND('',#87,.T.);
#54=FACE_OUTER_BOUND('',#89,.T.);
#55=FACE_OUTER_BOUND('',#90,.T.);
#56=FACE_OUTER_BOUND('',#91,.T.);
#57=FACE_OUTER_BOUND('',#92,.T.);
#58=FACE_OUTER_BOUND('',#93,.T.);
#59=FACE_OUTER_BOUND('',#94,.T.);
#60=FACE_OUTER_BOUND('',#95,.T.);
#61=FACE_OUTER_BOUND('',#96,.T.);
#62=FACE_OUTER_BOUND('',#97,.T.);
#63=FACE_OUTER_BOUND('',#98,.T.);
#64=FACE_OUTER_BOUND('',#99,.T.);
#65=FACE_OUTER_BOUND('',#100,.T.);
#66=FACE_OUTER_BOUND('',#101,.T.);
#67=FACE_OUTER_BOUND('',#102,.T.);
#68=FACE_OUTER_BOUND('',#103,.T.);
#69=FACE_OUTER_BOUND('',#105,.T.);
#70=FACE_OUTER_BOUND('',#106,.T.);
#71=FACE_OUTER_BOUND('',#107,.T.);
#72=FACE_OUTER_BOUND('',#108,.T.);
#73=EDGE_LOOP('',(#263,#264,#265,#266));
#74=EDGE_LOOP('',(#267,#268,#269,#270));
#75=EDGE_LOOP('',(#271,#272,#273,#274));
#76=EDGE_LOOP('',(#275,#276,#277,#278));
#77=EDGE_LOOP('',(#279,#280,#281,#282));
#78=EDGE_LOOP('',(#283,#284,#285,#286));
#79=EDGE_LOOP('',(#287,#288,#289,#290));
#80=EDGE_LOOP('',(#291,#292,#293));
#81=EDGE_LOOP('',(#294,#295,#296));
#82=EDGE_LOOP('',(#297,#298,#299,#300));
#83=EDGE_LOOP('',(#301,#302,#303));
#84=EDGE_LOOP('',(#304,#305,#306));
#85=EDGE_LOOP('',(#307));
#86=EDGE_LOOP('',(#308));
#87=EDGE_LOOP('',(#309));
#88=EDGE_LOOP('',(#310));
#89=EDGE_LOOP('',(#311,#312,#313,#314));
#90=EDGE_LOOP('',(#315));
#91=EDGE_LOOP('',(#316));
#92=EDGE_LOOP('',(#317,#318));
#93=EDGE_LOOP('',(#319,#320));
#94=EDGE_LOOP('',(#321,#322,#323,#324));
#95=EDGE_LOOP('',(#325,#326,#327,#328));
#96=EDGE_LOOP('',(#329,#330));
#97=EDGE_LOOP('',(#331,#332,#333,#334));
#98=EDGE_LOOP('',(#335,#336,#337,#338));
#99=EDGE_LOOP('',(#339,#340));
#100=EDGE_LOOP('',(#341,#342,#343,#344));
#101=EDGE_LOOP('',(#345,#346));
#102=EDGE_LOOP('',(#347,#348));
#103=EDGE_LOOP('',(#349,#350,#351,#352));
#104=EDGE_LOOP('',(#353,#354,#355,#356));
#105=EDGE_LOOP('',(#357,#358,#359,#360));
#106=EDGE_LOOP('',(#361,#362,#363,#364));
#107=EDGE_LOOP('',(#365));
#108=EDGE_LOOP('',(#366));
#109=LINE('',#632,#133);
#110=LINE('',#635,#134);
#111=LINE('',#638,#135);
#112=LINE('',#640,#136);
#113=LINE('',#641,#137);
#114=LINE('',#648,#138);
#115=LINE('',#650,#139);
#116=LINE('',#652,#140);
#117=LINE('',#653,#141);
#118=LINE('',#659,#142);
#119=LINE('',#667,#143);
#120=LINE('',#673,#144);
#121=LINE('',#681,#145);
#122=LINE('',#706,#146);
#123=LINE('',#707,#147);
#124=LINE('',#713,#148);
#125=LINE('',#716,#149);
#126=LINE('',#724,#150);
#127=LINE('',#727,#151);
#128=LINE('',#729,#152);
#129=LINE('',#730,#153);
#130=LINE('',#735,#154);
#131=LINE('',#740,#155);
#132=LINE('',#746,#156);
#133=VECTOR('',#496,1.);
#134=VECTOR('',#499,1.);
#135=VECTOR('',#502,1.);
#136=VECTOR('',#503,1.);
#137=VECTOR('',#504,1.);
#138=VECTOR('',#513,1.);
#139=VECTOR('',#514,1.);
#140=VECTOR('',#515,1.);
#141=VECTOR('',#516,1.);
#142=VECTOR('',#523,1.);
#143=VECTOR('',#534,7.90998);
#144=VECTOR('',#541,8.69306156300228);
#145=VECTOR('',#552,0.707106781186548);
#146=VECTOR('',#569,1.);
#147=VECTOR('',#570,1.);
#148=VECTOR('',#575,2.63666);
#149=VECTOR('',#578,2.63666);
#150=VECTOR('',#587,2.63666);
#151=VECTOR('',#590,2.63666);
#152=VECTOR('',#593,2.63666);
#153=VECTOR('',#594,2.63666);
#154=VECTOR('',#603,2.63666);
#155=VECTOR('',#612,2.63666);
#156=VECTOR('',#619,0.761579243831093);
#157=CIRCLE('',#436,7.90998);
#158=CIRCLE('',#437,8.69306156300228);
#159=CIRCLE('',#447,7.90998);
#160=CIRCLE('',#448,8.69306156300228);
#161=CIRCLE('',#450,7.90998);
#162=CIRCLE('',#451,7.90998);
#163=CIRCLE('',#453,8.69306156300228);
#164=CIRCLE('',#454,8.69306156300228);
#165=CIRCLE('',#458,0.707106781186548);
#166=CIRCLE('',#459,0.707106781186548);
#167=CIRCLE('',#463,0.73106481699061);
#168=CIRCLE('',#465,0.73106481699061);
#169=CIRCLE('',#468,1.31833);
#170=CIRCLE('',#469,1.31833);
#171=CIRCLE('',#471,1.31833);
#172=CIRCLE('',#472,1.31833);
#173=CIRCLE('',#474,1.31833);
#174=CIRCLE('',#477,1.31833);
#175=CIRCLE('',#479,1.31833);
#176=CIRCLE('',#482,1.31833);
#177=CIRCLE('',#486,0.761579243831093);
#178=CIRCLE('',#487,0.761579243831093);
#179=VERTEX_POINT('',#628);
#180=VERTEX_POINT('',#629);
#181=VERTEX_POINT('',#631);
#182=VERTEX_POINT('',#633);
#183=VERTEX_POINT('',#637);
#184=VERTEX_POINT('',#639);
#185=VERTEX_POINT('',#646);
#186=VERTEX_POINT('',#647);
#187=VERTEX_POINT('',#649);
#188=VERTEX_POINT('',#651);
#189=VERTEX_POINT('',#655);
#190=VERTEX_POINT('',#657);
#191=VERTEX_POINT('',#664);
#192=VERTEX_POINT('',#666);
#193=VERTEX_POINT('',#670);
#194=VERTEX_POINT('',#672);
#195=VERTEX_POINT('',#678);
#196=VERTEX_POINT('',#680);
#197=VERTEX_POINT('',#686);
#198=VERTEX_POINT('',#687);
#199=VERTEX_POINT('',#696);
#200=VERTEX_POINT('',#697);
#201=VERTEX_POINT('',#709);
#202=VERTEX_POINT('',#710);
#203=VERTEX_POINT('',#712);
#204=VERTEX_POINT('',#714);
#205=VERTEX_POINT('',#718);
#206=VERTEX_POINT('',#719);
#207=VERTEX_POINT('',#723);
#208=VERTEX_POINT('',#725);
#209=VERTEX_POINT('',#743);
#210=VERTEX_POINT('',#745);
#211=EDGE_CURVE('',#179,#180,#157,.T.);
#212=EDGE_CURVE('',#179,#181,#109,.T.);
#213=EDGE_CURVE('',#182,#181,#158,.T.);
#214=EDGE_CURVE('',#180,#182,#110,.T.);
#215=EDGE_CURVE('',#180,#183,#111,.T.);
#216=EDGE_CURVE('',#184,#182,#112,.T.);
#217=EDGE_CURVE('',#183,#184,#113,.T.);
#218=EDGE_CURVE('',#183,#179,#40,.T.);
#219=EDGE_CURVE('',#181,#184,#41,.T.);
#220=EDGE_CURVE('',#185,#186,#114,.T.);
#221=EDGE_CURVE('',#185,#187,#115,.T.);
#222=EDGE_CURVE('',#188,#187,#116,.T.);
#223=EDGE_CURVE('',#186,#188,#117,.T.);
#224=EDGE_CURVE('',#186,#189,#42,.T.);
#225=EDGE_CURVE('',#190,#188,#43,.T.);
#226=EDGE_CURVE('',#189,#190,#118,.T.);
#227=EDGE_CURVE('',#189,#185,#159,.T.);
#228=EDGE_CURVE('',#187,#190,#160,.T.);
#229=EDGE_CURVE('',#191,#191,#161,.F.);
#230=EDGE_CURVE('',#191,#192,#119,.T.);
#231=EDGE_CURVE('',#192,#192,#162,.T.);
#232=EDGE_CURVE('',#193,#193,#163,.T.);
#233=EDGE_CURVE('',#193,#194,#120,.T.);
#234=EDGE_CURVE('',#194,#194,#164,.T.);
#235=EDGE_CURVE('',#195,#195,#165,.T.);
#236=EDGE_CURVE('',#195,#196,#121,.T.);
#237=EDGE_CURVE('',#196,#196,#166,.T.);
#238=EDGE_CURVE('',#197,#198,#17,.T.);
#239=EDGE_CURVE('',#198,#197,#167,.T.);
#240=EDGE_CURVE('',#199,#200,#18,.T.);
#241=EDGE_CURVE('',#200,#199,#168,.T.);
#242=EDGE_CURVE('',#198,#199,#122,.T.);
#243=EDGE_CURVE('',#200,#197,#123,.T.);
#244=EDGE_CURVE('',#201,#202,#169,.T.);
#245=EDGE_CURVE('',#201,#203,#124,.T.);
#246=EDGE_CURVE('',#204,#203,#170,.T.);
#247=EDGE_CURVE('',#204,#202,#125,.T.);
#248=EDGE_CURVE('',#205,#206,#171,.T.);
#249=EDGE_CURVE('',#206,#205,#172,.T.);
#250=EDGE_CURVE('',#206,#207,#126,.T.);
#251=EDGE_CURVE('',#208,#207,#173,.T.);
#252=EDGE_CURVE('',#208,#205,#127,.T.);
#253=EDGE_CURVE('',#202,#206,#128,.T.);
#254=EDGE_CURVE('',#207,#204,#129,.T.);
#255=EDGE_CURVE('',#207,#208,#174,.T.);
#256=EDGE_CURVE('',#204,#203,#175,.T.);
#257=EDGE_CURVE('',#203,#208,#130,.T.);
#258=EDGE_CURVE('',#202,#201,#176,.T.);
#259=EDGE_CURVE('',#205,#201,#131,.T.);
#260=EDGE_CURVE('',#209,#209,#177,.T.);
#261=EDGE_CURVE('',#209,#210,#132,.T.);
#262=EDGE_CURVE('',#210,#210,#178,.T.);
#263=ORIENTED_EDGE('',*,*,#211,.F.);
#264=ORIENTED_EDGE('',*,*,#212,.T.);
#265=ORIENTED_EDGE('',*,*,#213,.F.);
#266=ORIENTED_EDGE('',*,*,#214,.F.);
#267=ORIENTED_EDGE('',*,*,#215,.F.);
#268=ORIENTED_EDGE('',*,*,#214,.T.);
#269=ORIENTED_EDGE('',*,*,#216,.F.);
#270=ORIENTED_EDGE('',*,*,#217,.F.);
#271=ORIENTED_EDGE('',*,*,#218,.F.);
#272=ORIENTED_EDGE('',*,*,#217,.T.);
#273=ORIENTED_EDGE('',*,*,#219,.F.);
#274=ORIENTED_EDGE('',*,*,#212,.F.);
#275=ORIENTED_EDGE('',*,*,#220,.F.);
#276=ORIENTED_EDGE('',*,*,#221,.T.);
#277=ORIENTED_EDGE('',*,*,#222,.F.);
#278=ORIENTED_EDGE('',*,*,#223,.F.);
#279=ORIENTED_EDGE('',*,*,#224,.F.);
#280=ORIENTED_EDGE('',*,*,#223,.T.);
#281=ORIENTED_EDGE('',*,*,#225,.F.);
#282=ORIENTED_EDGE('',*,*,#226,.F.);
#283=ORIENTED_EDGE('',*,*,#227,.F.);
#284=ORIENTED_EDGE('',*,*,#226,.T.);
#285=ORIENTED_EDGE('',*,*,#228,.F.);
#286=ORIENTED_EDGE('',*,*,#221,.F.);
#287=ORIENTED_EDGE('',*,*,#229,.F.);
#288=ORIENTED_EDGE('',*,*,#230,.T.);
#289=ORIENTED_EDGE('',*,*,#231,.F.);
#290=ORIENTED_EDGE('',*,*,#230,.F.);
#291=ORIENTED_EDGE('',*,*,#215,.T.);
#292=ORIENTED_EDGE('',*,*,#218,.T.);
#293=ORIENTED_EDGE('',*,*,#211,.T.);
#294=ORIENTED_EDGE('',*,*,#224,.T.);
#295=ORIENTED_EDGE('',*,*,#227,.T.);
#296=ORIENTED_EDGE('',*,*,#220,.T.);
#297=ORIENTED_EDGE('',*,*,#232,.F.);
#298=ORIENTED_EDGE('',*,*,#233,.T.);
#299=ORIENTED_EDGE('',*,*,#234,.T.);
#300=ORIENTED_EDGE('',*,*,#233,.F.);
#301=ORIENTED_EDGE('',*,*,#216,.T.);
#302=ORIENTED_EDGE('',*,*,#213,.T.);
#303=ORIENTED_EDGE('',*,*,#219,.T.);
#304=ORIENTED_EDGE('',*,*,#225,.T.);
#305=ORIENTED_EDGE('',*,*,#222,.T.);
#306=ORIENTED_EDGE('',*,*,#228,.T.);
#307=ORIENTED_EDGE('',*,*,#232,.T.);
#308=ORIENTED_EDGE('',*,*,#229,.T.);
#309=ORIENTED_EDGE('',*,*,#234,.F.);
#310=ORIENTED_EDGE('',*,*,#231,.T.);
#311=ORIENTED_EDGE('',*,*,#235,.F.);
#312=ORIENTED_EDGE('',*,*,#236,.T.);
#313=ORIENTED_EDGE('',*,*,#237,.T.);
#314=ORIENTED_EDGE('',*,*,#236,.F.);
#315=ORIENTED_EDGE('',*,*,#237,.F.);
#316=ORIENTED_EDGE('',*,*,#235,.T.);
#317=ORIENTED_EDGE('',*,*,#238,.F.);
#318=ORIENTED_EDGE('',*,*,#239,.F.);
#319=ORIENTED_EDGE('',*,*,#240,.F.);
#320=ORIENTED_EDGE('',*,*,#241,.F.);
#321=ORIENTED_EDGE('',*,*,#242,.F.);
#322=ORIENTED_EDGE('',*,*,#239,.T.);
#323=ORIENTED_EDGE('',*,*,#243,.F.);
#324=ORIENTED_EDGE('',*,*,#241,.T.);
#325=ORIENTED_EDGE('',*,*,#244,.F.);
#326=ORIENTED_EDGE('',*,*,#245,.T.);
#327=ORIENTED_EDGE('',*,*,#246,.F.);
#328=ORIENTED_EDGE('',*,*,#247,.T.);
#329=ORIENTED_EDGE('',*,*,#248,.F.);
#330=ORIENTED_EDGE('',*,*,#249,.F.);
#331=ORIENTED_EDGE('',*,*,#248,.T.);
#332=ORIENTED_EDGE('',*,*,#250,.T.);
#333=ORIENTED_EDGE('',*,*,#251,.F.);
#334=ORIENTED_EDGE('',*,*,#252,.T.);
#335=ORIENTED_EDGE('',*,*,#253,.F.);
#336=ORIENTED_EDGE('',*,*,#247,.F.);
#337=ORIENTED_EDGE('',*,*,#254,.F.);
#338=ORIENTED_EDGE('',*,*,#250,.F.);
#339=ORIENTED_EDGE('',*,*,#255,.T.);
#340=ORIENTED_EDGE('',*,*,#251,.T.);
#341=ORIENTED_EDGE('',*,*,#255,.F.);
#342=ORIENTED_EDGE('',*,*,#254,.T.);
#343=ORIENTED_EDGE('',*,*,#256,.T.);
#344=ORIENTED_EDGE('',*,*,#257,.T.);
#345=ORIENTED_EDGE('',*,*,#256,.F.);
#346=ORIENTED_EDGE('',*,*,#246,.T.);
#347=ORIENTED_EDGE('',*,*,#258,.T.);
#348=ORIENTED_EDGE('',*,*,#244,.T.);
#349=ORIENTED_EDGE('',*,*,#249,.T.);
#350=ORIENTED_EDGE('',*,*,#259,.T.);
#351=ORIENTED_EDGE('',*,*,#258,.F.);
#352=ORIENTED_EDGE('',*,*,#253,.T.);
#353=ORIENTED_EDGE('',*,*,#238,.T.);
#354=ORIENTED_EDGE('',*,*,#242,.T.);
#355=ORIENTED_EDGE('',*,*,#240,.T.);
#356=ORIENTED_EDGE('',*,*,#243,.T.);
#357=ORIENTED_EDGE('',*,*,#257,.F.);
#358=ORIENTED_EDGE('',*,*,#245,.F.);
#359=ORIENTED_EDGE('',*,*,#259,.F.);
#360=ORIENTED_EDGE('',*,*,#252,.F.);
#361=ORIENTED_EDGE('',*,*,#260,.F.);
#362=ORIENTED_EDGE('',*,*,#261,.T.);
#363=ORIENTED_EDGE('',*,*,#262,.T.);
#364=ORIENTED_EDGE('',*,*,#261,.F.);
#365=ORIENTED_EDGE('',*,*,#260,.T.);
#366=ORIENTED_EDGE('',*,*,#262,.F.);
#367=PLANE('',#435);
#368=PLANE('',#438);
#369=PLANE('',#439);
#370=PLANE('',#442);
#371=PLANE('',#443);
#372=PLANE('',#446);
#373=PLANE('',#455);
#374=PLANE('',#456);
#375=PLANE('',#460);
#376=PLANE('',#461);
#377=PLANE('',#466);
#378=PLANE('',#475);
#379=PLANE('',#484);
#380=PLANE('',#488);
#381=PLANE('',#489);
#382=STYLED_ITEM('',(#771),#389);
#383=STYLED_ITEM('',(#771),#390);
#384=STYLED_ITEM('',(#771),#391);
#385=STYLED_ITEM('',(#770),#21);
#386=STYLED_ITEM('',(#772),#414);
#387=STYLED_ITEM('',(#771),#20);
#388=STYLED_ITEM('',(#769),#22);
#389=ADVANCED_FACE('',(#44),#367,.F.);
#390=ADVANCED_FACE('',(#45),#368,.F.);
#391=ADVANCED_FACE('',(#46),#369,.F.);
#392=ADVANCED_FACE('',(#47),#370,.F.);
#393=ADVANCED_FACE('',(#48),#371,.F.);
#394=ADVANCED_FACE('',(#49),#372,.F.);
#395=ADVANCED_FACE('',(#50,#23,#24),#30,.F.);
#396=ADVANCED_FACE('',(#51,#25,#26),#31,.T.);
#397=ADVANCED_FACE('',(#52,#27),#373,.T.);
#398=ADVANCED_FACE('',(#53,#28),#374,.F.);
#399=ADVANCED_FACE('',(#54),#32,.F.);
#400=ADVANCED_FACE('',(#55),#375,.F.);
#401=ADVANCED_FACE('',(#56),#376,.T.);
#402=ADVANCED_FACE('',(#57),#33,.F.);
#403=ADVANCED_FACE('',(#58),#34,.F.);
#404=ADVANCED_FACE('',(#59),#377,.T.);
#405=ADVANCED_FACE('',(#60),#35,.T.);
#406=ADVANCED_FACE('',(#61),#13,.T.);
#407=ADVANCED_FACE('',(#62),#36,.T.);
#408=ADVANCED_FACE('',(#63),#378,.F.);
#409=ADVANCED_FACE('',(#64),#14,.T.);
#410=ADVANCED_FACE('',(#65),#37,.T.);
#411=ADVANCED_FACE('',(#66),#15,.T.);
#412=ADVANCED_FACE('',(#67),#16,.T.);
#413=ADVANCED_FACE('',(#68,#29),#38,.T.);
#414=ADVANCED_FACE('',(#69),#379,.T.);
#415=ADVANCED_FACE('',(#70),#39,.T.);
#416=ADVANCED_FACE('',(#71),#380,.T.);
#417=ADVANCED_FACE('',(#72),#381,.F.);
#418=CLOSED_SHELL('',(#389,#390,#391,#392,#393,#394,#395,#396,#397,#398));
#419=CLOSED_SHELL('',(#399,#400,#401));
#420=CLOSED_SHELL('',(#402,#403,#404,#405,#406,#407,#408,#409,#410,#411,
#412,#413,#414));
#421=CLOSED_SHELL('',(#415,#416,#417));
#422=DERIVED_UNIT_ELEMENT(#424,1.);
#423=DERIVED_UNIT_ELEMENT(#755,-3.);
#424=(
MASS_UNIT()
NAMED_UNIT(*)
SI_UNIT(.KILO.,.GRAM.)
);
#425=DERIVED_UNIT((#422,#423));
#426=MEASURE_REPRESENTATION_ITEM('density measure',
POSITIVE_RATIO_MEASURE(7850.),#425);
#427=PROPERTY_DEFINITION_REPRESENTATION(#432,#429);
#428=PROPERTY_DEFINITION_REPRESENTATION(#433,#430);
#429=REPRESENTATION('material name',(#431),#752);
#430=REPRESENTATION('density',(#426),#752);
#431=DESCRIPTIVE_REPRESENTATION_ITEM('Steel','Steel');
#432=PROPERTY_DEFINITION('material property','material name',#762);
#433=PROPERTY_DEFINITION('material property','density of part',#762);
#434=AXIS2_PLACEMENT_3D('placement',#626,#490,#491);
#435=AXIS2_PLACEMENT_3D('',#627,#492,#493);
#436=AXIS2_PLACEMENT_3D('',#630,#494,#495);
#437=AXIS2_PLACEMENT_3D('',#634,#497,#498);
#438=AXIS2_PLACEMENT_3D('',#636,#500,#501);
#439=AXIS2_PLACEMENT_3D('',#642,#505,#506);
#440=AXIS2_PLACEMENT_3D('',#643,#507,#508);
#441=AXIS2_PLACEMENT_3D('',#644,#509,#510);
#442=AXIS2_PLACEMENT_3D('',#645,#511,#512);
#443=AXIS2_PLACEMENT_3D('',#654,#517,#518);
#444=AXIS2_PLACEMENT_3D('',#656,#519,#520);
#445=AXIS2_PLACEMENT_3D('',#658,#521,#522);
#446=AXIS2_PLACEMENT_3D('',#660,#524,#525);
#447=AXIS2_PLACEMENT_3D('',#661,#526,#527);
#448=AXIS2_PLACEMENT_3D('',#662,#528,#529);
#449=AXIS2_PLACEMENT_3D('',#663,#530,#531);
#450=AXIS2_PLACEMENT_3D('',#665,#532,#533);
#451=AXIS2_PLACEMENT_3D('',#668,#535,#536);
#452=AXIS2_PLACEMENT_3D('',#669,#537,#538);
#453=AXIS2_PLACEMENT_3D('',#671,#539,#540);
#454=AXIS2_PLACEMENT_3D('',#674,#542,#543);
#455=AXIS2_PLACEMENT_3D('',#675,#544,#545);
#456=AXIS2_PLACEMENT_3D('',#676,#546,#547);
#457=AXIS2_PLACEMENT_3D('',#677,#548,#549);
#458=AXIS2_PLACEMENT_3D('',#679,#550,#551);
#459=AXIS2_PLACEMENT_3D('',#682,#553,#554);
#460=AXIS2_PLACEMENT_3D('',#683,#555,#556);
#461=AXIS2_PLACEMENT_3D('',#684,#557,#558);
#462=AXIS2_PLACEMENT_3D('',#685,#559,#560);
#463=AXIS2_PLACEMENT_3D('',#694,#561,#562);
#464=AXIS2_PLACEMENT_3D('',#695,#563,#564);
#465=AXIS2_PLACEMENT_3D('',#704,#565,#566);
#466=AXIS2_PLACEMENT_3D('',#705,#567,#568);
#467=AXIS2_PLACEMENT_3D('',#708,#571,#572);
#468=AXIS2_PLACEMENT_3D('',#711,#573,#574);
#469=AXIS2_PLACEMENT_3D('',#715,#576,#577);
#470=AXIS2_PLACEMENT_3D('',#717,#579,#580);
#471=AXIS2_PLACEMENT_3D('',#720,#581,#582);
#472=AXIS2_PLACEMENT_3D('',#721,#583,#584);
#473=AXIS2_PLACEMENT_3D('',#722,#585,#586);
#474=AXIS2_PLACEMENT_3D('',#726,#588,#589);
#475=AXIS2_PLACEMENT_3D('',#728,#591,#592);
#476=AXIS2_PLACEMENT_3D('',#731,#595,#596);
#477=AXIS2_PLACEMENT_3D('',#732,#597,#598);
#478=AXIS2_PLACEMENT_3D('',#733,#599,#600);
#479=AXIS2_PLACEMENT_3D('',#734,#601,#602);
#480=AXIS2_PLACEMENT_3D('',#736,#604,#605);
#481=AXIS2_PLACEMENT_3D('',#737,#606,#607);
#482=AXIS2_PLACEMENT_3D('',#738,#608,#609);
#483=AXIS2_PLACEMENT_3D('',#739,#610,#611);
#484=AXIS2_PLACEMENT_3D('',#741,#613,#614);
#485=AXIS2_PLACEMENT_3D('',#742,#615,#616);
#486=AXIS2_PLACEMENT_3D('',#744,#617,#618);
#487=AXIS2_PLACEMENT_3D('',#747,#620,#621);
#488=AXIS2_PLACEMENT_3D('',#748,#622,#623);
#489=AXIS2_PLACEMENT_3D('',#749,#624,#625);
#490=DIRECTION('axis',(0.,0.,1.));
#491=DIRECTION('refdir',(1.,0.,0.));
#492=DIRECTION('center_axis',(0.,1.,0.));
#493=DIRECTION('ref_axis',(1.,0.,0.));
#494=DIRECTION('center_axis',(0.,-1.,0.));
#495=DIRECTION('ref_axis',(0.,0.,1.));
#496=DIRECTION('',(0.,0.,-1.));
#497=DIRECTION('center_axis',(0.,1.,0.));
#498=DIRECTION('ref_axis',(1.,0.,0.));
#499=DIRECTION('',(0.,0.,-1.));
#500=DIRECTION('center_axis',(1.,0.,0.));
#501=DIRECTION('ref_axis',(0.,-1.,0.));
#502=DIRECTION('',(0.,-1.,0.));
#503=DIRECTION('',(0.,1.,0.));
#504=DIRECTION('',(0.,0.,-1.));
#505=DIRECTION('center_axis',(-0.702637636588271,-0.711547856190748,0.));
#506=DIRECTION('ref_axis',(-0.711547856190748,0.702637636588271,0.));
#507=DIRECTION('center_axis',(0.702637636588271,0.711547856190748,0.));
#508=DIRECTION('ref_axis',(-0.711547856190748,0.702637636588271,0.));
#509=DIRECTION('center_axis',(-0.702637636588271,-0.711547856190748,0.));
#510=DIRECTION('ref_axis',(0.711547856190747,-0.702637636588271,0.));
#511=DIRECTION('center_axis',(-1.,0.,0.));
#512=DIRECTION('ref_axis',(0.,1.,0.));
#513=DIRECTION('',(0.,1.,0.));
#514=DIRECTION('',(0.,0.,-1.));
#515=DIRECTION('',(0.,-1.,0.));
#516=DIRECTION('',(0.,0.,-1.));
#517=DIRECTION('center_axis',(0.702973703107777,0.711215841175476,0.));
#518=DIRECTION('ref_axis',(0.711215841175476,-0.702973703107777,0.));
#519=DIRECTION('center_axis',(-0.702973703107777,-0.711215841175476,0.));
#520=DIRECTION('ref_axis',(-0.711215841175476,0.702973703107777,0.));
#521=DIRECTION('center_axis',(0.702973703107777,0.711215841175476,0.));
#522=DIRECTION('ref_axis',(0.711215841175476,-0.702973703107777,0.));
#523=DIRECTION('',(0.,0.,-1.));
#524=DIRECTION('center_axis',(0.,-1.,0.));
#525=DIRECTION('ref_axis',(-1.,0.,0.));
#526=DIRECTION('center_axis',(0.,1.,0.));
#527=DIRECTION('ref_axis',(0.,0.,1.));
#528=DIRECTION('center_axis',(0.,-1.,0.));
#529=DIRECTION('ref_axis',(1.,0.,0.));
#530=DIRECTION('center_axis',(0.,-1.,0.));
#531=DIRECTION('ref_axis',(0.,0.,1.));
#532=DIRECTION('center_axis',(0.,1.,0.));
#533=DIRECTION('ref_axis',(0.,0.,1.));
#534=DIRECTION('',(0.,-1.,0.));
#535=DIRECTION('center_axis',(0.,1.,0.));
#536=DIRECTION('ref_axis',(0.,0.,1.));
#537=DIRECTION('center_axis',(0.,1.,0.));
#538=DIRECTION('ref_axis',(1.,0.,0.));
#539=DIRECTION('center_axis',(0.,1.,0.));
#540=DIRECTION('ref_axis',(1.,0.,0.));
#541=DIRECTION('',(0.,-1.,0.));
#542=DIRECTION('center_axis',(0.,1.,0.));
#543=DIRECTION('ref_axis',(1.,0.,0.));
#544=DIRECTION('center_axis',(0.,1.,0.));
#545=DIRECTION('ref_axis',(1.,0.,0.));
#546=DIRECTION('center_axis',(0.,1.,0.));
#547=DIRECTION('ref_axis',(1.,0.,0.));
#548=DIRECTION('center_axis',(1.,0.,0.));
#549=DIRECTION('ref_axis',(0.,0.,-1.));
#550=DIRECTION('center_axis',(1.,0.,0.));
#551=DIRECTION('ref_axis',(0.,0.,-1.));
#552=DIRECTION('',(1.,0.,0.));
#553=DIRECTION('center_axis',(1.,0.,0.));
#554=DIRECTION('ref_axis',(0.,0.,-1.));
#555=DIRECTION('center_axis',(1.,0.,0.));
#556=DIRECTION('ref_axis',(0.,0.,-1.));
#557=DIRECTION('center_axis',(1.,0.,0.));
#558=DIRECTION('ref_axis',(0.,0.,-1.));
#559=DIRECTION('center_axis',(1.,0.,0.));
#560=DIRECTION('ref_axis',(0.,0.,-1.));
#561=DIRECTION('center_axis',(1.,0.,0.));
#562=DIRECTION('ref_axis',(0.,0.,-1.));
#563=DIRECTION('center_axis',(1.,0.,0.));
#564=DIRECTION('ref_axis',(0.,0.,-1.));
#565=DIRECTION('center_axis',(1.,0.,0.));
#566=DIRECTION('ref_axis',(0.,0.,-1.));
#567=DIRECTION('center_axis',(1.,0.,0.));
#568=DIRECTION('ref_axis',(0.,0.,-1.));
#569=DIRECTION('',(7.70371977754895E-34,1.,-4.16333634234434E-17));
#570=DIRECTION('',(-7.70371977754895E-34,-1.,4.16333634234434E-17));
#571=DIRECTION('center_axis',(1.,1.54074395550979E-33,5.55111512312578E-17));
#572=DIRECTION('ref_axis',(3.92523114670944E-17,-0.707106781186547,-0.707106781186547));
#573=DIRECTION('center_axis',(1.,1.54074395550979E-33,5.55111512312578E-17));
#574=DIRECTION('ref_axis',(3.92523114670944E-17,-0.707106781186547,-0.707106781186548));
#575=DIRECTION('',(-1.,-1.54074395550979E-33,-5.55111512312578E-17));
#576=DIRECTION('center_axis',(-1.,-1.54074395550979E-33,-5.55111512312578E-17));
#577=DIRECTION('ref_axis',(3.92523114670944E-17,-0.707106781186547,-0.707106781186548));
#578=DIRECTION('',(1.,1.54074395550979E-33,5.55111512312578E-17));
#579=DIRECTION('center_axis',(-0.816496580927726,0.408248290463863,0.408248290463863));
#580=DIRECTION('ref_axis',(0.577350269189626,0.577350269189626,0.577350269189625));
#581=DIRECTION('center_axis',(-1.,7.70371977754894E-34,-6.25927231925852E-34));
#582=DIRECTION('ref_axis',(7.70371977754895E-34,1.,-4.16333634234434E-17));
#583=DIRECTION('center_axis',(-7.70371977754895E-34,-1.,4.16333634234434E-17));
#584=DIRECTION('ref_axis',(6.25927231925852E-34,-4.16333634234434E-17,-1.));
#585=DIRECTION('center_axis',(-1.,-1.54074395550979E-33,-5.55111512312578E-17));
#586=DIRECTION('ref_axis',(-3.92523114670944E-17,0.707106781186547,0.707106781186547));
#587=DIRECTION('',(-1.,-1.54074395550979E-33,-5.55111512312578E-17));
#588=DIRECTION('center_axis',(-1.,-1.54074395550979E-33,-5.55111512312578E-17));
#589=DIRECTION('ref_axis',(-3.92523114670944E-17,0.707106781186548,0.707106781186548));
#590=DIRECTION('',(1.,1.54074395550979E-33,5.55111512312578E-17));
#591=DIRECTION('center_axis',(-5.55111512312578E-17,4.16333634234434E-17,
1.));
#592=DIRECTION('ref_axis',(1.,1.54074395550979E-33,5.55111512312578E-17));
#593=DIRECTION('',(7.70371977754895E-34,1.,-4.16333634234434E-17));
#594=DIRECTION('',(-7.70371977754895E-34,-1.,4.16333634234434E-17));
#595=DIRECTION('center_axis',(-0.408248290463863,-0.816496580927726,0.408248290463863));
#596=DIRECTION('ref_axis',(-0.577350269189626,0.577350269189626,0.577350269189626));
#597=DIRECTION('center_axis',(7.70371977754895E-34,1.,-4.16333634234434E-17));
#598=DIRECTION('ref_axis',(-0.707106781186548,2.94392336003208E-17,0.707106781186547));
#599=DIRECTION('center_axis',(-7.70371977754895E-34,-1.,4.16333634234434E-17));
#600=DIRECTION('ref_axis',(-0.707106781186547,2.94392336003208E-17,0.707106781186547));
#601=DIRECTION('center_axis',(7.70371977754895E-34,1.,-4.16333634234434E-17));
#602=DIRECTION('ref_axis',(5.55111512312578E-17,-4.16333634234434E-17,-1.));
#603=DIRECTION('',(7.70371977754895E-34,1.,-4.16333634234434E-17));
#604=DIRECTION('center_axis',(0.408248290463863,-0.816496580927726,-0.408248290463863));
#605=DIRECTION('ref_axis',(-0.577350269189626,-0.577350269189626,0.577350269189626));
#606=DIRECTION('center_axis',(-0.408248290463863,-0.816496580927726,-0.408248290463863));
#607=DIRECTION('ref_axis',(0.577350269189626,-0.577350269189626,0.577350269189626));
#608=DIRECTION('center_axis',(-7.70371977754895E-34,-1.,4.16333634234434E-17));
#609=DIRECTION('ref_axis',(1.,1.54074395550979E-33,5.55111512312578E-17));
#610=DIRECTION('center_axis',(7.70371977754895E-34,1.,-4.16333634234434E-17));
#611=DIRECTION('ref_axis',(0.707106781186547,2.94392336003208E-17,0.707106781186547));
#612=DIRECTION('',(-7.70371977754895E-34,-1.,4.16333634234434E-17));
#613=DIRECTION('center_axis',(-5.55111512312578E-17,4.16333634234434E-17,
1.));
#614=DIRECTION('ref_axis',(1.,1.54074395550979E-33,5.55111512312578E-17));
#615=DIRECTION('center_axis',(1.,0.,0.));
#616=DIRECTION('ref_axis',(0.,0.,-1.));
#617=DIRECTION('center_axis',(1.,0.,0.));
#618=DIRECTION('ref_axis',(0.,0.,-1.));
#619=DIRECTION('',(-1.,0.,0.));
#620=DIRECTION('center_axis',(1.,0.,0.));
#621=DIRECTION('ref_axis',(0.,0.,-1.));
#622=DIRECTION('center_axis',(1.,0.,0.));
#623=DIRECTION('ref_axis',(0.,0.,-1.));
#624=DIRECTION('center_axis',(1.,0.,0.));
#625=DIRECTION('ref_axis',(0.,0.,-1.));
#626=CARTESIAN_POINT('',(0.,0.,0.));
#627=CARTESIAN_POINT('Origin',(-3.5,2.,0.));
#628=CARTESIAN_POINT('',(-3.5,2.,-6.99888158969009));
#629=CARTESIAN_POINT('',(-0.265735622905218,2.,-7.81600511560191));
#630=CARTESIAN_POINT('Origin',(0.0111101205546904,2.,0.0891286615538007));
#631=CARTESIAN_POINT('',(-3.5,2.,-7.8633190785754));
#632=CARTESIAN_POINT('',(-3.5,2.,0.));
#633=CARTESIAN_POINT('',(-0.265735622905218,2.,-8.59952346478177));
#634=CARTESIAN_POINT('Origin',(0.0111101205546902,2.,0.0891286615538007));
#635=CARTESIAN_POINT('',(-0.265735622905218,2.,0.));
#636=CARTESIAN_POINT('Origin',(-0.265735622905218,2.,0.));
#637=CARTESIAN_POINT('',(-0.265735622905218,-1.19376393063619,-7.81600511560191));
#638=CARTESIAN_POINT('',(-0.265735622905218,-0.222873995972948,-7.81600511560191));
#639=CARTESIAN_POINT('',(-0.265735622905218,-1.19376393063619,-8.59952346478177));
#640=CARTESIAN_POINT('',(-0.265735622905218,-2.85953399597295,-8.59952346478177));
#641=CARTESIAN_POINT('',(-0.265735622905218,-1.19376393063619,0.));
#642=CARTESIAN_POINT('Origin',(-0.265735622905218,-1.19376393063619,0.));
#643=CARTESIAN_POINT('Origin',(0.0111101205546904,-1.46714292713203,0.0891286615538007));
#644=CARTESIAN_POINT('Origin',(0.0111101205546902,-1.46714292713203,0.0891286615538007));
#645=CARTESIAN_POINT('Origin',(0.649527174454867,-1.5,0.));
#646=CARTESIAN_POINT('',(0.649527174454867,-1.5,-7.79504582064086));
#647=CARTESIAN_POINT('',(0.649527174454867,1.81164486640607,-7.79504582064086));
#648=CARTESIAN_POINT('',(0.649527174454867,-0.222873995972948,-7.79504582064086));
#649=CARTESIAN_POINT('',(0.649527174454867,-1.5,-8.58045858372132));
#650=CARTESIAN_POINT('',(0.649527174454867,-1.5,0.));
#651=CARTESIAN_POINT('',(0.649527174454867,1.81164486640607,-8.58045858372132));
#652=CARTESIAN_POINT('',(0.649527174454867,-2.85953399597295,-8.58045858372132));
#653=CARTESIAN_POINT('',(0.649527174454867,1.81164486640607,0.));
#654=CARTESIAN_POINT('Origin',(0.649527174454867,1.81164486640607,0.));
#655=CARTESIAN_POINT('',(4.,-1.5,-6.74143069548708));
#656=CARTESIAN_POINT('Origin',(0.0111101205546904,2.4426634328171,0.0891286615538007));
#657=CARTESIAN_POINT('',(4.,-1.5,-7.63473545349939));
#658=CARTESIAN_POINT('Origin',(0.0111101205546902,2.4426634328171,0.0891286615538007));
#659=CARTESIAN_POINT('',(4.,-1.5,0.));
#660=CARTESIAN_POINT('Origin',(4.,-1.5,0.));
#661=CARTESIAN_POINT('Origin',(0.0111101205546904,-1.5,0.0891286615538007));
#662=CARTESIAN_POINT('Origin',(0.0111101205546902,-1.5,0.0891286615538007));
#663=CARTESIAN_POINT('Origin',(0.0111101205546904,-0.222873995972948,0.0891286615538007));
#664=CARTESIAN_POINT('',(0.0111101205546894,3.41378600402705,-7.8208513384462));
#665=CARTESIAN_POINT('Origin',(0.0111101205546904,3.41378600402705,0.0891286615538007));
#666=CARTESIAN_POINT('',(0.0111101205546914,-2.85953399597295,-7.8208513384462));
#667=CARTESIAN_POINT('',(0.0111101205546914,-0.222873995972948,-7.8208513384462));
#668=CARTESIAN_POINT('Origin',(0.0111101205546904,-2.85953399597295,0.0891286615538007));
#669=CARTESIAN_POINT('Origin',(0.0111101205546902,-2.85953399597295,0.0891286615538007));
#670=CARTESIAN_POINT('',(-8.68195144244759,3.41378600402705,0.0891286615538018));
#671=CARTESIAN_POINT('Origin',(0.0111101205546902,3.41378600402705,0.0891286615538007));
#672=CARTESIAN_POINT('',(-8.68195144244759,-2.85953399597295,0.0891286615538025));
#673=CARTESIAN_POINT('',(-8.68195144244759,-2.85953399597295,0.0891286615538018));
#674=CARTESIAN_POINT('Origin',(0.0111101205546902,-2.85953399597295,0.0891286615538007));
#675=CARTESIAN_POINT('Origin',(0.0111101205546902,3.41378600402705,0.0891286615538007));
#676=CARTESIAN_POINT('Origin',(0.0111101205546902,-2.85953399597295,0.0891286615538007));
#677=CARTESIAN_POINT('Origin',(0.,1.81164486640607,10.1104439169924));
#678=CARTESIAN_POINT('',(0.,1.81164486640607,10.817550698179));
#679=CARTESIAN_POINT('Origin',(0.,1.81164486640607,10.1104439169924));
#680=CARTESIAN_POINT('',(1.,1.81164486640607,10.817550698179));
#681=CARTESIAN_POINT('',(0.,1.81164486640607,10.817550698179));
#682=CARTESIAN_POINT('Origin',(1.,1.81164486640607,10.1104439169924));
#683=CARTESIAN_POINT('Origin',(1.,1.81164486640607,10.1104439169924));
#684=CARTESIAN_POINT('Origin',(0.,1.81164486640607,10.1104439169924));
#685=CARTESIAN_POINT('Origin',(4.58433412451138,1.95483056421015,10.1096075953092));
#686=CARTESIAN_POINT('',(4.58433412451138,1.26997682694044,9.85381251093652));
#687=CARTESIAN_POINT('',(4.58433412451138,1.25095585289321,10.3071326757674));
#688=CARTESIAN_POINT('Ctrl Pts',(4.58433412451138,1.26997682694044,9.85381251093652));
#689=CARTESIAN_POINT('Ctrl Pts',(4.59873048799258,1.23916761110848,9.9362996574609));
#690=CARTESIAN_POINT('Ctrl Pts',(4.60551114424137,1.22376574721954,10.0251012967322));
#691=CARTESIAN_POINT('Ctrl Pts',(4.6022034341098,1.22376574721954,10.1747353515837));
#692=CARTESIAN_POINT('Ctrl Pts',(4.59566910054972,1.2327302892318,10.2421864252406));
#693=CARTESIAN_POINT('Ctrl Pts',(4.58433412451138,1.25095585289321,10.3071326757674));
#694=CARTESIAN_POINT('Origin',(4.58433412451138,1.95483056421015,10.1096075953092));
#695=CARTESIAN_POINT('Origin',(4.58433412451138,1.95483056421015,10.1096075953092));
#696=CARTESIAN_POINT('',(4.58433412451138,2.65870527552709,10.3071326757674));
#697=CARTESIAN_POINT('',(4.58433412451138,2.63968430147986,9.85381251093652));
#698=CARTESIAN_POINT('Ctrl Pts',(4.58433412451138,2.65870527552708,10.3071326757674));
#699=CARTESIAN_POINT('Ctrl Pts',(4.595668505516,2.67692988243085,10.2421898346178));
#700=CARTESIAN_POINT('Ctrl Pts',(4.60220326657678,2.68589538120076,10.1747429304354));
#701=CARTESIAN_POINT('Ctrl Pts',(4.60551114424137,2.68589538120076,10.0251012967322));
#702=CARTESIAN_POINT('Ctrl Pts',(4.59873048799258,2.67049351731182,9.93629965746089));
#703=CARTESIAN_POINT('Ctrl Pts',(4.58433412451138,2.63968430147986,9.85381251093652));
#704=CARTESIAN_POINT('Origin',(4.58433412451138,1.95483056421015,10.1096075953092));
#705=CARTESIAN_POINT('Origin',(4.58433412451138,1.95483056421015,10.1096075953092));
#706=CARTESIAN_POINT('',(4.58433412451138,-2.04903870758069,10.3071326757674));
#707=CARTESIAN_POINT('',(4.58433412451138,-2.04903870758069,9.85381251093652));
#708=CARTESIAN_POINT('Origin',(-2.06245599146508,-2.94430146072154,10.080472593352));
#709=CARTESIAN_POINT('',(3.28563508472602,-2.94430146072154,11.398802593352));
#710=CARTESIAN_POINT('',(3.28563508472602,-2.94430146072154,8.76214259335195));
#711=CARTESIAN_POINT('Origin',(3.28563508472602,-2.94430146072154,10.080472593352));
#712=CARTESIAN_POINT('',(-2.96626635019545,-2.94430146072154,11.398802593352));
#713=CARTESIAN_POINT('',(-2.06245599146508,-2.94430146072154,11.398802593352));
#714=CARTESIAN_POINT('',(-2.96626635019545,-2.94430146072154,8.76214259335195));
#715=CARTESIAN_POINT('Origin',(-2.96626635019545,-2.94430146072154,10.080472593352));
#716=CARTESIAN_POINT('',(-2.06245599146508,-2.94430146072154,8.76214259335195));
#717=CARTESIAN_POINT('Origin',(3.28563508472602,3.27340955184187,10.080472593352));
#718=CARTESIAN_POINT('',(3.28563508472602,3.27340955184187,11.398802593352));
#719=CARTESIAN_POINT('',(3.28563508472602,3.27340955184187,8.76214259335195));
#720=CARTESIAN_POINT('Origin',(3.28563508472602,3.27340955184187,10.080472593352));
#721=CARTESIAN_POINT('Origin',(3.28563508472602,3.27340955184187,10.080472593352));
#722=CARTESIAN_POINT('Origin',(2.38182472599565,3.27340955184187,10.080472593352));
#723=CARTESIAN_POINT('',(-2.96626635019545,3.27340955184187,8.76214259335195));
#724=CARTESIAN_POINT('',(2.38182472599565,3.27340955184187,8.76214259335195));
#725=CARTESIAN_POINT('',(-2.96626635019545,3.27340955184187,11.398802593352));
#726=CARTESIAN_POINT('Origin',(-2.96626635019545,3.27340955184187,10.080472593352));
#727=CARTESIAN_POINT('',(2.38182472599565,3.27340955184187,11.398802593352));
#728=CARTESIAN_POINT('Origin',(0.159684367265283,0.164554045560165,8.76214259335195));
#729=CARTESIAN_POINT('',(3.28563508472602,-2.04903870758069,8.76214259335195));
#730=CARTESIAN_POINT('',(-2.96626635019545,2.37814679870102,8.76214259335195));
#731=CARTESIAN_POINT('Origin',(-2.96626635019545,3.27340955184187,10.080472593352));
#732=CARTESIAN_POINT('Origin',(-2.96626635019545,3.27340955184187,10.080472593352));
#733=CARTESIAN_POINT('Origin',(-2.96626635019545,2.37814679870102,10.080472593352));
#734=CARTESIAN_POINT('Origin',(-2.96626635019545,-2.94430146072154,10.080472593352));
#735=CARTESIAN_POINT('',(-2.96626635019545,2.37814679870102,11.398802593352));
#736=CARTESIAN_POINT('Origin',(-2.96626635019545,-2.94430146072154,10.080472593352));
#737=CARTESIAN_POINT('Origin',(3.28563508472602,-2.94430146072154,10.080472593352));
#738=CARTESIAN_POINT('Origin',(3.28563508472602,-2.94430146072154,10.080472593352));
#739=CARTESIAN_POINT('Origin',(3.28563508472602,-2.04903870758069,10.080472593352));
#740=CARTESIAN_POINT('',(3.28563508472602,-2.04903870758069,11.398802593352));
#741=CARTESIAN_POINT('Origin',(0.159684367265283,0.164554045560166,11.398802593352));
#742=CARTESIAN_POINT('Origin',(4.64093934628659,-1.27206201684294,10.0509651024373));
#743=CARTESIAN_POINT('',(4.79093934628659,-1.27206201684294,10.8125443462684));
#744=CARTESIAN_POINT('Origin',(4.79093934628659,-1.27206201684294,10.0509651024373));
#745=CARTESIAN_POINT('',(4.64093934628659,-1.27206201684294,10.8125443462684));
#746=CARTESIAN_POINT('',(4.64093934628659,-1.27206201684294,10.8125443462684));
#747=CARTESIAN_POINT('Origin',(4.64093934628659,-1.27206201684294,10.0509651024373));
#748=CARTESIAN_POINT('Origin',(4.79093934628659,-1.27206201684294,10.0509651024373));
#749=CARTESIAN_POINT('Origin',(4.64093934628659,-1.27206201684294,10.0509651024373));
#750=UNCERTAINTY_MEASURE_WITH_UNIT(LENGTH_MEASURE(0.001),#754,
'DISTANCE_ACCURACY_VALUE',
'Maximum model space distance between geometric entities at asserted c
onnectivities');
#751=UNCERTAINTY_MEASURE_WITH_UNIT(LENGTH_MEASURE(0.001),#754,
'DISTANCE_ACCURACY_VALUE',
'Maximum model space distance between geometric entities at asserted c
onnectivities');
#752=(
GEOMETRIC_REPRESENTATION_CONTEXT(3)
GLOBAL_UNCERTAINTY_ASSIGNED_CONTEXT((#750))
GLOBAL_UNIT_ASSIGNED_CONTEXT((#754,#756,#757))
REPRESENTATION_CONTEXT('','3D')
);
#753=(
GEOMETRIC_REPRESENTATION_CONTEXT(3)
GLOBAL_UNCERTAINTY_ASSIGNED_CONTEXT((#751))
GLOBAL_UNIT_ASSIGNED_CONTEXT((#754,#756,#757))
REPRESENTATION_CONTEXT('','3D')
);
#754=(
LENGTH_UNIT()
NAMED_UNIT(*)
SI_UNIT(.CENTI.,.METRE.)
);
#755=(
LENGTH_UNIT()
NAMED_UNIT(*)
SI_UNIT($,.METRE.)
);
#756=(
NAMED_UNIT(*)
PLANE_ANGLE_UNIT()
SI_UNIT($,.RADIAN.)
);
#757=(
NAMED_UNIT(*)
SI_UNIT($,.STERADIAN.)
SOLID_ANGLE_UNIT()
);
#758=SHAPE_DEFINITION_REPRESENTATION(#759,#760);
#759=PRODUCT_DEFINITION_SHAPE('',$,#762);
#760=SHAPE_REPRESENTATION('',(#434),#752);
#761=PRODUCT_DEFINITION_CONTEXT('part definition',#766,'design');
#762=PRODUCT_DEFINITION('Untitled','Untitled',#763,#761);
#763=PRODUCT_DEFINITION_FORMATION('',$,#768);
#764=PRODUCT_RELATED_PRODUCT_CATEGORY('Untitled','Untitled',(#768));
#765=APPLICATION_PROTOCOL_DEFINITION('international standard',
'automotive_design',2009,#766);
#766=APPLICATION_CONTEXT(
'Core Data for Automotive Mechanical Design Process');
#767=PRODUCT_CONTEXT('part definition',#766,'mechanical');
#768=PRODUCT('Untitled','Untitled',$,(#767));
#769=PRESENTATION_STYLE_ASSIGNMENT((#773));
#770=PRESENTATION_STYLE_ASSIGNMENT((#774));
#771=PRESENTATION_STYLE_ASSIGNMENT((#775));
#772=PRESENTATION_STYLE_ASSIGNMENT((#776));
#773=SURFACE_STYLE_USAGE(.BOTH.,#777);
#774=SURFACE_STYLE_USAGE(.BOTH.,#778);
#775=SURFACE_STYLE_USAGE(.BOTH.,#779);
#776=SURFACE_STYLE_USAGE(.BOTH.,#780);
#777=SURFACE_SIDE_STYLE('',(#781));
#778=SURFACE_SIDE_STYLE('',(#782));
#779=SURFACE_SIDE_STYLE('',(#783));
#780=SURFACE_SIDE_STYLE('',(#784));
#781=SURFACE_STYLE_FILL_AREA(#785);
#782=SURFACE_STYLE_FILL_AREA(#786);
#783=SURFACE_STYLE_FILL_AREA(#787);
#784=SURFACE_STYLE_FILL_AREA(#788);
#785=FILL_AREA_STYLE('Steel - Satin',(#789));
#786=FILL_AREA_STYLE('Paint - Metallic (Yellow)',(#790));
#787=FILL_AREA_STYLE('Paint - Metallic (Red)',(#791));
#788=FILL_AREA_STYLE('Paint - Metallic (Black)',(#792));
#789=FILL_AREA_STYLE_COLOUR('Steel - Satin',#793);
#790=FILL_AREA_STYLE_COLOUR('Paint - Metallic (Yellow)',#794);
#791=FILL_AREA_STYLE_COLOUR('Paint - Metallic (Red)',#795);
#792=FILL_AREA_STYLE_COLOUR('Paint - Metallic (Black)',#796);
#793=COLOUR_RGB('Steel - Satin',0.627450980392157,0.627450980392157,0.627450980392157);
#794=COLOUR_RGB('Paint - Metallic (Yellow)',0.909803921568627,0.67843137254902,
0.137254901960784);
#795=COLOUR_RGB('Paint - Metallic (Red)',0.768627450980392,0.207843137254902,
0.152941176470588);
#796=COLOUR_RGB('Paint - Metallic (Black)',0.0980392156862745,0.0980392156862745,
0.0980392156862745);
ENDSEC;
END-ISO-10303-21;
